<svg xmlns="http://www.w3.org/2000/svg" viewBox="0 0 71.05 71.05"><defs><style>.cls-1{fill:#fff;}</style></defs><g id="Layer_2" data-name="Layer 2"><g id="Layer_1-2" data-name="Layer 1"><path class="cls-1" d="M71.05,60.28A10.77,10.77,0,0,1,60.28,71.05H10.76A10.77,10.77,0,0,1,0,60.28V10.77A10.77,10.77,0,0,1,10.76,0H60.28A10.77,10.77,0,0,1,71.05,10.77ZM11.67,12.2a9,9,0,0,0,2.75,6.65,9,9,0,0,0,6.66,2.76h9.47v27.3a10,10,0,0,0,10,9.94V21.61H50a9,9,0,0,0,6.66-2.76,9,9,0,0,0,2.76-6.65Z"/></g></g></svg>