<svg xmlns="http://www.w3.org/2000/svg" viewBox="0 0 82.91 66"><g id="Layer_2" data-name="Layer 2"><g id="Layer_1-2" data-name="Layer 1"><path d="M46.42,51.76c.08-.14.07-.2,0,0Z"/><path d="M74.66,15.42a54.84,54.84,0,0,0-4.59-5.71C65.89,5.13,60.8,1.33,54.56.37c-6.83-1-14,.25-20.55,2.25h0c-1.47.39-2.9.82-4.28,1.27C23.16,6,16.43,9.43,12.07,15a18.12,18.12,0,0,0-2.89,5.17A16.54,16.54,0,0,0,7.11,30.31c.59,3.91,3.34,7.11,6.27,9.59a17.29,17.29,0,0,0,7.12,4.87q2,1.13,4.07,2.09C15.43,51.4,9.6,60.73.27,65c-.56.25-.16,1.19.42,1,.36-.12.71-.26,1.06-.4l0,0A3.54,3.54,0,0,0,4.21,66a30.35,30.35,0,0,0,5.18-.9c5.15-1.2,10.24-2.71,15.25-4.36s10-3.41,14.94-5.3c1.66-.64,3.31-1.29,4.93-2,.81-.36,1.61-.7,1.9-1.6v0l0,.08a.38.38,0,0,0-.31-.58l.17,0c.32.13.65.24,1,.35a.22.22,0,0,0,.19.29c.36,0,.72.06,1.08.07a32.2,32.2,0,0,0,11.68.25c6.15-.86,12.29-3.57,16.49-8.23a17.7,17.7,0,0,0,2.71-4c.35-.42.7-.85,1-1.3C86.11,30.58,81.16,21.89,74.66,15.42Zm5.86,12.29c-.12-.49-.27-1-.42-1.47a14.08,14.08,0,0,1,.94,4.6A20.44,20.44,0,0,0,80.52,27.71ZM55.86,2.41C60.22,3.35,64,6.05,67.2,9.24l-.79-.54A47.69,47.69,0,0,0,51.57,1.84,29.47,29.47,0,0,1,55.86,2.41ZM39.4,53.75c-4.69,1.82-9.43,3.49-14.2,5.1-2,.66-3.93,1.33-5.9,2C27.41,58,35.41,54.66,43.61,52,42.22,52.65,40.81,53.2,39.4,53.75Zm6.31-2.31.06-.09h0A.24.24,0,0,0,45.71,51.44ZM3.25,65.25a.18.18,0,0,0-.11.1,2.45,2.45,0,0,1-.86,0c9-3.87,14.67-12.86,23.55-17a.74.74,0,0,0,.48-.67l.28.12a.3.3,0,0,0,.3-.52c-.89-.62-1.81-1.22-2.75-1.81a.71.71,0,0,0,0-1.35c-3.57-1.23-6.71-2.64-9.35-5.41a18.61,18.61,0,0,1-4.68-9.44,15.25,15.25,0,0,1,1-8.82,27.32,27.32,0,0,1,4.76-6c4.48-4.3,10.34-7.21,16.23-9.26A64.79,64.79,0,0,1,39.5,3.49a30.84,30.84,0,0,1,9-.37,34.79,34.79,0,0,1,8.86,2.7,53.15,53.15,0,0,1,15.9,10.65c3.39,4.84,6.19,10.64,6.21,16.48a13.19,13.19,0,0,1-1.67,6.38c-3,3.38-7.5,5.69-11.39,7.31a62.94,62.94,0,0,1-9.57,3c-1.71.41-3.46.63-5.2.9-.55-.07-1.09-.14-1.63-.24-.76-.14-1.52-.34-2.28-.56a.55.55,0,0,0-.29-.08c-1.35-.41-2.67-.91-4-1.39-.7-.25-1,.72-.47,1.1a11.43,11.43,0,0,0,1.68,1.08C30.64,54.74,17.19,60.73,3.25,65.25ZM57.4,50.75a64.77,64.77,0,0,0,7.86-2.15,46.5,46.5,0,0,0,6.83-2.93,25.18,25.18,0,0,1-3,1.89A29,29,0,0,1,57.4,50.75Z"/><path d="M28.63,23.68c-.26-2.45-1.83-4.62-4.26-4.27a4.85,4.85,0,0,0-5.12,1.95C17.49,24,18.09,29,20.86,31l0,.1a.37.37,0,0,0,.25.25l.46.07.23.09C25.29,32.78,27.55,30,28.35,27a7.16,7.16,0,0,0,.33-2.59C28.67,24.14,28.66,23.91,28.63,23.68Zm-2.39-.85a12.25,12.25,0,0,1,.09,1.48,4.34,4.34,0,0,1-1.17,3.27c.15-1.41.57-2.79.63-4.21a.44.44,0,0,0-.68-.34l.21-.67C25.76,22.37,26.18,22.34,26.24,22.83Zm-2.37,1.9,0,0a.27.27,0,0,0-.07-.08c.09-.13.18-.26.26-.39C24,24.39,23.93,24.56,23.87,24.73Zm0,2.12c.1.32.18.65.25,1l-.39-.53C23.81,27.15,23.85,27,23.9,26.85Zm.52-1.12.26-.43c-.05.24-.09.49-.14.73Zm-.93-1.48a10.44,10.44,0,0,0-.73-.76c0-.24,0-.48,0-.72a4.23,4.23,0,0,1,.48-.23,4.37,4.37,0,0,1,1.39-.2C24.28,23,23.89,23.62,23.49,24.25Zm-1-1-.16-.15.17-.12A2.44,2.44,0,0,1,22.45,23.21ZM22,26.29a4.38,4.38,0,0,0-.42.28,2.44,2.44,0,0,1-.33-1.32C21.47,25.6,21.72,26,22,26.29Zm.28.37c.22.27.43.54.66.8a.09.09,0,0,1,0,.05.36.36,0,0,0,0,.15,3,3,0,0,1-1.06-.7A2.88,2.88,0,0,1,22.26,26.66Zm2.49-6.05a4.11,4.11,0,0,1,1.19.63l-.31,0a.29.29,0,0,0-.51,0,6.72,6.72,0,0,0-2.39.35,1,1,0,0,0,0-.17A4.64,4.64,0,0,1,24.75,20.61Zm-2.27.91v.1l-.32.14Zm-.94-.8a7.5,7.5,0,0,0-1.44,1.43A3.42,3.42,0,0,1,21.54,20.72Zm-1.05,8.15A6.5,6.5,0,0,1,19.71,27a5.06,5.06,0,0,0,.87,1A3.3,3.3,0,0,0,20.49,28.87Zm6.84-2.63a6.94,6.94,0,0,1-.67,2A5.51,5.51,0,0,1,24,30.41a2.9,2.9,0,0,1-.48.14,3.28,3.28,0,0,1-1-.09,3,3,0,0,1-1.41-.75,5,5,0,0,1-.06-1.27,4.84,4.84,0,0,0,3.4.81c1.75-.26,2.54-1.61,2.85-3.18C27.34,26.12,27.34,26.18,27.33,26.24Z"/><path d="M43.13,33.49a6.48,6.48,0,0,0,7.21-.85c1.44-.45,2.08-1.81,2.24-3.36a6.31,6.31,0,0,0,.23-2.75c.56-2.24-.52-4.24-3-5.16L49,21.13l-.51-.27a5.94,5.94,0,0,0-4.94-.24,8.36,8.36,0,0,0-1.15.19c.12-.4-.21-.93-.67-.74A7.09,7.09,0,0,0,37,26.48a5.22,5.22,0,0,0,.73,2.85,4.13,4.13,0,0,0,0,1.11c.24,2.58,2.66,3.1,5.09,2.95Zm-3.92-4.43s0,.05,0,.07a6.92,6.92,0,0,0,.37.84,6.86,6.86,0,0,1-.48-.59A1.87,1.87,0,0,1,39.21,29.06Zm11.67,1.28a6,6,0,0,1-.79,1.09,2.5,2.5,0,0,1-1.15.27,12.45,12.45,0,0,0,2.41-2.4v0A5.81,5.81,0,0,1,50.88,30.34ZM49.4,25a.51.51,0,0,0-.26.14c-1.15,1.14-2.44,2.12-3.66,3.18A17.92,17.92,0,0,1,48.35,23,3.29,3.29,0,0,1,49.4,25Zm-5.88,5.66a13.86,13.86,0,0,0,1.87,1.2,4.8,4.8,0,0,1-2.54-.61C43.08,31,43.3,30.79,43.52,30.61Zm-.67-.53.11.09-.1.08A1,1,0,0,1,42.85,30.08ZM44.7,30a.36.36,0,0,0,.25-.11l0,0a2.59,2.59,0,0,1,.42-.09c.17,0,.16-.25,0-.32.81-.71,1.66-1.36,2.5-2-.31.64-.63,1.28-.95,1.93a.51.51,0,0,0,.79.61c.08-.09.27-.27.5-.49a6.56,6.56,0,0,0,.07.9,4,4,0,0,1-.37.43,3.67,3.67,0,0,1-.81.56A11.08,11.08,0,0,1,44.7,30Zm-.42-.5a.13.13,0,0,0,0,.06l-.12,0c-.52-.4-1-.79-1.3-1.1a7.83,7.83,0,0,1,3.39-5.59.23.23,0,0,0,0-.3,2.64,2.64,0,0,1,1.55.08A19.09,19.09,0,0,0,44.28,29.47Zm-2-1.59a10.25,10.25,0,0,1-1.13-1.41,5.93,5.93,0,0,1,.67-1.33,10.77,10.77,0,0,1,3.62-2.3A8.22,8.22,0,0,0,42.26,27.88Zm-.12,1.58a12.46,12.46,0,0,0,.08,1.33c-.11-.1-.23-.2-.33-.31a3.43,3.43,0,0,1-1-2.35A13.75,13.75,0,0,0,42.14,29.46Zm5.35,3.17a5.19,5.19,0,0,0,.64.13,4.91,4.91,0,0,1-1.61.32A9.42,9.42,0,0,0,47.49,32.63Zm3.31-7.46a10.47,10.47,0,0,1,.41,1.65c0,.31.1.66.13,1a7.48,7.48,0,0,1-.85,1.2A7.91,7.91,0,0,0,50.8,25.17Zm-7.13-3.36a6.9,6.9,0,0,0-1,.55,4.17,4.17,0,0,1,.62-.49Zm-3.22,2,.2-.24a6,6,0,0,0-.35,1.09c0-.11,0-.22,0-.33S40.38,24,40.45,23.83Zm-2.28,2.65a4.94,4.94,0,0,1,.91-3,3.25,3.25,0,0,0-.06,1,8.23,8.23,0,0,0-.26,2.08v.18a8.78,8.78,0,0,0-.44.79A5.13,5.13,0,0,1,38.17,26.48Z"/><path d="M64.26,37a3,3,0,0,0,2.92-1.2l.3-.38c.41-.11.8-.24,1.17-.38,2.5-1,4.35-3.15,3.25-5.89-1.2-3-5.13-6.21-8.44-6.28a3.1,3.1,0,0,0-3,2l-.25.27a7,7,0,0,0-1.58,2C56.56,31,59.72,38.11,64.26,37Zm-3.7-3.33.49.16c.05.09.09.19.14.28A2.8,2.8,0,0,1,60.56,33.69Zm6.5-3.08,0,.19a10,10,0,0,1-1.21.24,3.6,3.6,0,0,0-.27-.78c.11-.26.21-.53.33-.79,0,0,.11,0,.25,0A7.47,7.47,0,0,1,67.06,30.61Zm-4.9-2.31.35-.2a8.1,8.1,0,0,1,1.16.86c0,.18-.05.36-.07.54a17.41,17.41,0,0,0-.77,2,.5.5,0,0,0,0,.12A5.72,5.72,0,0,1,62.16,28.3Zm.11,4.56L62,32.79c-.08-.2-.16-.42-.24-.64A4.57,4.57,0,0,0,62.27,32.86Zm3.17-4.15a1.28,1.28,0,0,0-.23.29l-.06-.32.09-.14Zm-.94,1.15a3.87,3.87,0,0,1,.24.37.38.38,0,0,1,0,.1l-.12.32-.09,0A3.9,3.9,0,0,1,64.5,29.86Zm-1.22,2.25H64l-.26.54a2.59,2.59,0,0,1-.63-.56A.57.57,0,0,0,63.28,32.11ZM65,33a2.24,2.24,0,0,1-.52,0c.08-.14.16-.28.23-.42a1.92,1.92,0,0,0,.48.15s0,.07,0,.1a1.33,1.33,0,0,1-.09.21Zm-1.14-4.9a6.55,6.55,0,0,0-.53-.39l.39-.18.24.12C63.91,27.78,63.87,27.93,63.84,28.08Zm2,4.69,0-.08h.18ZM64.19,26a5.1,5.1,0,0,1-.19-.55s-.07,0-.06,0c0,.19.09.38.13.56l-.48.18a3.82,3.82,0,0,0-.66-.12,1.53,1.53,0,0,0-1.49.62l-.26-.09a4.44,4.44,0,0,1,.21-.78,4,4,0,0,1,1.25-.75,2.25,2.25,0,0,1,.62-.15,4.23,4.23,0,0,1,2.41.68A9.71,9.71,0,0,0,64.19,26Zm-3.12,1.43,0,0h0l0,0S61.07,27.43,61.07,27.41Zm6.09-.47a4.5,4.5,0,0,1,.65,2l-.39-.16c-.31-.66-.62-1.33-.87-2a4.63,4.63,0,0,1,.54,0ZM60,31.78l0,.1-.1-.1a2.58,2.58,0,0,1,0-.29C59.91,31.58,60,31.68,60,31.78Zm1.43,3.44a4.24,4.24,0,0,0,.59.23,1.24,1.24,0,0,0,.14.18l-.08,0A5.26,5.26,0,0,1,61.41,35.22Zm9.44-5.57c.85,2-.59,3.49-2.29,4.28a3.91,3.91,0,0,0,1.26-3.37.41.41,0,0,0,0-.49A5.57,5.57,0,0,0,70,28.21,6.24,6.24,0,0,1,70.85,29.65Z"/></g></g></svg>