<svg xmlns="http://www.w3.org/2000/svg" viewBox="0 0 169.23 109.11"><defs><style>.cls-1{fill:#1a1a1a;}</style></defs><g id="Layer_2" data-name="Layer 2"><g id="Layer_1-2" data-name="Layer 1"><path class="cls-1" d="M41.52,75.71c-1.83.57-3.41,1.1-5,1.56-5.69,1.63-11.29,1-16.86-.68A18,18,0,0,1,12,72.12,12.93,12.93,0,0,1,8.12,63.6,23.05,23.05,0,0,1,10,53.46,46.79,46.79,0,0,1,20.77,37.58c8.15-8.25,17.59-14.68,27.74-20.19a145.22,145.22,0,0,1,49.08-16A143.08,143.08,0,0,1,131.94.73a61.64,61.64,0,0,1,22.79,6.43,29.94,29.94,0,0,1,12.52,12.45c2.9,5.25,2.37,10.57,0,15.87a45.75,45.75,0,0,1-14.56,17.77A126.31,126.31,0,0,1,115.36,72.8,159,159,0,0,1,81,80.36a45.57,45.57,0,0,1-12.4,0,1.91,1.91,0,0,0-1.76.74c-2.61,2.49-5.2,5-7.81,7.46q-9.37,8.92-18.77,17.82a17.78,17.78,0,0,1-3.06,2.35c-1.69,1-3.1.21-2.95-1.74a38.38,38.38,0,0,1,1.07-6c1.87-7.65,3.8-15.28,5.7-22.92C41.23,77.33,41.34,76.61,41.52,75.71Zm-4.65,30c.85-.64,1.29-.92,1.67-1.27,3-2.79,5.92-5.6,8.88-8.4q9.09-8.62,18.18-17.25a8,8,0,0,1,2-1.42c.41-.2,1.34-.18,1.46,0,.76,1.45,2,1.08,3.21,1.07a122.84,122.84,0,0,0,26.37-3.66c15.64-3.68,30.52-9.24,44.09-18a73.08,73.08,0,0,0,14.9-11.95,35.42,35.42,0,0,0,8.1-13.74,12.68,12.68,0,0,0-.94-10.07,26.93,26.93,0,0,0-9-10,45.77,45.77,0,0,0-13.06-5.54c-7.4-2-15-2.56-22.6-2.73A141.22,141.22,0,0,0,69.3,11.12a134.21,134.21,0,0,0-36,19.21A75.66,75.66,0,0,0,17.55,45.56,35,35,0,0,0,11.2,59.1C10,64.63,11.8,69.16,16.31,72a18.76,18.76,0,0,0,4.23,2,27.15,27.15,0,0,0,19.51-.68,12.78,12.78,0,0,1,2.53-.69c1.25-.24,1.6.1,1.44,1.39a30.46,30.46,0,0,1-.56,3c-1.91,8.13-3.85,16.25-5.76,24.38C37.4,102.66,37.21,104,36.87,105.74Z"/><path class="cls-1" d="M0,61.71a27.61,27.61,0,0,1,2.17-9.55A60.46,60.46,0,0,1,19.58,28.67a24.78,24.78,0,0,1,3.93-2.52,4,4,0,0,1,2.12-.56,2.14,2.14,0,0,1,1.51,1.06c.18.38-.27,1.07-.5,1.6-.07.15-.33.23-.5.34-5.28,3.18-9.21,7.78-12.9,12.58A51.29,51.29,0,0,0,5.46,55.42a23.23,23.23,0,0,0-.85,10.66,7.42,7.42,0,0,1,.1,1.82,1.65,1.65,0,0,1-1.66,1.5,1.54,1.54,0,0,1-1.72-1.16C.78,65.87.35,63.47,0,61.71Z"/><path class="cls-1" d="M35.05,90.82a2.28,2.28,0,0,1-2,2.39A2.32,2.32,0,0,1,30.89,91a2.08,2.08,0,0,1,4.16-.13Z"/><path class="cls-1" d="M35.79,84.73c-1.32,0-2.18-.67-2.21-1.8A2,2,0,0,1,35.5,81a2,2,0,0,1,2.18,1.91C37.76,84,37,84.7,35.79,84.73Z"/><path class="cls-1" d="M29.6,102.61a1.86,1.86,0,0,1-2-1.82,2,2,0,1,1,4,0A1.77,1.77,0,0,1,29.6,102.61Z"/><path class="cls-1" d="M49,54.43c1.28-1.77,2.23-3.26,3.36-4.59,1.89-2.22,3.87-4.37,5.88-6.48a8,8,0,0,1,2.14-1.53c2.54-1.33,4.94-.12,5.16,2.75a60.27,60.27,0,0,1-.18,6.71c0,1.05-.15,2.09-.23,3.14l.45.14c.7-1.27,1.47-2.51,2.1-3.81,2.15-4.47,4-9.08,6.45-13.38,1.54-2.73,2.82-5.77,5.46-7.73a13.59,13.59,0,0,1,3.48-2,5,5,0,0,1,6.6,3.68,9,9,0,0,1-.11,5,18.68,18.68,0,0,1-5.25,8.6,12.57,12.57,0,0,1-3.29,1.94,2,2,0,0,1-2.4-.59,1.75,1.75,0,0,1,.62-2.75c3-1.88,4.53-4.78,5.64-8a3.93,3.93,0,0,0-.11-3.39,5.81,5.81,0,0,0-1.64,1.06,24.5,24.5,0,0,0-3,4.57c-1.72,4-3.16,8.11-2.77,12.59a7.26,7.26,0,0,0,.51,2.15c.62,1.47,1.79,1.93,3.1,1a14.64,14.64,0,0,0,3.52-3.32c2.53-3.61,4.8-7.4,7.27-11.06s3.85-7.72,5.23-11.85a82.23,82.23,0,0,1,4.47-10,8.31,8.31,0,0,1,3.78-3.88c2.42-1.18,4.83,0,5.14,2.68a12.79,12.79,0,0,1-.09,4.05c-1.56,7.46-4.56,14.2-10.18,19.56a2.16,2.16,0,0,0-.81,1.75c0,2.29-.18,4.64,1.56,6.59a6.73,6.73,0,0,0,3.64-3.16c1.68-2.71,3.25-5.49,4.81-8.28,1.06-1.89,2-3.84,3-5.76.16-.3.25-.72.49-.89,1.84-1.21,1.91-3.32,2.59-5.1,1.22-3.24,2.38-6.53,4.59-9.26a15.11,15.11,0,0,1,3.18-3.11c2.83-1.9,5.51-.82,6,2.52a17,17,0,0,1-.13,5.65,30.66,30.66,0,0,1-8.08,15.72c-.78.83-1.7,1.53-2.84,2.54.29,1.1.64,2.41,1,3.86a5.29,5.29,0,0,0,3-2.07c1.93-2.7,3.78-5.46,5.67-8.19.66-.94,1.35-1.86,2.09-2.87-.83-4.74,1.39-8.51,4.54-11.76s7.84-2.19,9.64,2c.21.49.38,1,.68,1.8.77-.8,1.36-1.5,2-2.1a5.46,5.46,0,0,1,1.8-1.25A2.24,2.24,0,0,1,151.48,21a4.7,4.7,0,0,1-.9,1.8c-1.47,1.78-2.94,3.56-4.55,5.21a4.19,4.19,0,0,0-1.24,2.46,28.14,28.14,0,0,1-3.93,10.62,13.09,13.09,0,0,1-4.11,4.17c-3.28,2.12-6.14,1.63-8.52-1.46a4,4,0,0,1-.26-.35,55.61,55.61,0,0,1-4.52,3.91,6.52,6.52,0,0,1-5,1.28c-2.39-.45-3.74-2-4.71-4.1-.31-.67-.55-1.38-.93-2.32-1,1.65-1.78,3.13-2.65,4.6a16.54,16.54,0,0,1-5.61,5.79c-3.41,2.09-6.61,1.38-8.76-2a13.44,13.44,0,0,1-1.11-2.17C94.4,47.76,94.25,47,94,46c-.4.56-.7.93-.94,1.34a39.68,39.68,0,0,1-6.55,9,10.07,10.07,0,0,1-5.62,3.07,7.09,7.09,0,0,1-7.6-3.87c-.31-.6-.59-1.21-1-2.12-.39.66-.65,1.16-1,1.62-1.17,1.74-2.25,3.55-3.56,5.18a3.93,3.93,0,0,1-4.42,1.33A4.46,4.46,0,0,1,60.34,58c-.61-2.51-.22-5,.11-7.49.13-1,.25-2,.39-3.14-1,.09-1.36.77-1.83,1.27-3.28,3.49-5.66,7.63-8.25,11.61-.63,1-1.17,2-1.81,3-.88,1.34-2.11,2-3.22,1.59a3,3,0,0,1-2.12-2.94c0-.92-.09-1.85-.15-3.06L42.12,60c-1.77,1.59-3.48,3.24-5.31,4.75A6,6,0,0,1,33,66.38a1.64,1.64,0,0,1-1.77-1.06A1.62,1.62,0,0,1,32,63.23c4.6-2.74,7.84-6.87,11.17-10.89a3.81,3.81,0,0,0,.8-2,79.7,79.7,0,0,1,3.35-18.19c.8-2.59,1.57-5.22,3.25-7.43a10.19,10.19,0,0,1,1.81-1.9c2.07-1.58,4.61-1,5.5,1.46a12.19,12.19,0,0,1,.66,4.57,29.26,29.26,0,0,1-3.23,11.5c-1.67,3.48-3.58,6.85-5.48,10.21A5.38,5.38,0,0,0,49,54.43Zm75.62-36.56c-3,3.91-4.3,8.42-5.06,13.13A23.89,23.89,0,0,0,124.65,17.87ZM139.33,27a9.68,9.68,0,0,0-.61-5.36,7.61,7.61,0,0,0-3.52,6.22C136.77,28.42,138,27.68,139.33,27Zm-6.47,13,.62.23c2.41-1.63,3.37-4.18,4.46-6.92h-4C133.6,35.54,133.23,37.75,132.86,40ZM54,28.52a32.72,32.72,0,0,0-3.11,10.66A25.31,25.31,0,0,0,54,28.52Zm51.6-8.2c-1.57,1.93-3.78,7.74-3.78,10A38,38,0,0,0,105.59,20.32Z"/><path class="cls-1" d="M70.17,71.55c2.3-.21,4.87-.35,7.42-.69,4.64-.63,9.3-1.16,13.88-2.11a142.6,142.6,0,0,0,23.11-6.48c12.1-4.72,23.46-10.74,33.25-19.42A48.26,48.26,0,0,0,157,32a33.44,33.44,0,0,0,1.73-3.68c.33-.73.57-1.74,1.66-1.29s.75,1.36.44,2.12a37.9,37.9,0,0,1-2.1,4.63A50.47,50.47,0,0,1,146.27,47.9a115.26,115.26,0,0,1-37.2,19.33,160,160,0,0,1-21.52,5.36c-4.68.8-9.43,1.28-14.16,1.72a37.56,37.56,0,0,1-5.89-.25,4.64,4.64,0,0,0-4,1.49c-2.74,3.1-5.46,6.23-8.12,9.4-1.18,1.4-2.25,2.89-3.3,4.39a1.5,1.5,0,0,1-1.75.65c-.86-.16-1.15-.59-.9-1.42a2.68,2.68,0,0,1,.47-.9c3.1-4,6.16-8.1,9.33-12.09C61.91,72.15,65.29,70.17,70.17,71.55Z"/></g></g></svg>